{"title":"War - All Day Music EAC Cue sowingmyseed","uid":4871040,"size":283928258,"categoryP":"audio","categoryS":"flac","magnet":"?xt=urn:btih:333b3f36b08d878405daf5a994898700eb52e6fd&amp;dn=War+-+All+Day+Music+EAC+Cue+sowingmyseed&amp;tr=udp%3A%2F%2Ftracker.openbittorrent.com%3A80&amp;tr=udp%3A%2F%2Fopen.demonii.com%3A1337&amp;tr=udp%3A%2F%2Ftracker.coppersurfer.tk%3A6969&amp;tr=udp%3A%2F%2Fexodus.desync.com%3A6969","seeders":1,"leechers":0,"uploader":"sowingmyseed","files":9,"time":1240842780,"description":"Exact Audio Copy V0.99 prebeta 4 from 23. January 2008\n\nEAC extraction logfile from 26. April 2009, 18:22\n\nWar / All Day Music\n\nUsed drive  : ATAPI   DVD D  DH16D3P   Adapter: 0  ID: 1\n\nRead mode               : Secure\nUtilize accurate stream : Yes\nDefeat audio cache      : No\nMake use of C2 pointers : No\n\nRead offset correction                      : 6\nOverread into Lead-In and Lead-Out          : No\nFill up missing offset samples with silence : Yes\nDelete leading and trailing silent blocks   : No\nNull samples used in CRC calculations       : No\nUsed interface                              : Installed external ASPI interface\nGap handling                                : Not detected, thus appended to previous track\n\nUsed output format : Internal WAV Routines\nSample format      : 44.100 Hz; 16 Bit; Stereo\n\n\nTOC of the extracted CD\n\n     Track |   Start  |  Length  | Start sector | End sector \n    ---------------------------------------------------------\n        1  |  0:00.32 |  4:03.65 |        32    |    18321   \n        2  |  4:04.22 |  4:32.08 |     18322    |    38729   \n        3  |  8:36.30 |  7:15.72 |     38730    |    71426   \n        4  | 15:52.27 |  3:15.03 |     71427    |    86054   \n        5  | 19:07.30 |  6:06.17 |     86055    |   113521   \n        6  | 25:13.47 |  6:59.35 |    113522    |   144981   \n        7  | 32:13.07 |  7:40.05 |    144982    |   179486   \n\n\nTrack  1\n\n     Filename E:MusicWarAll Day MusicWar - All Day Music - 01. All Day Music.wav\n\n     Peak level 100.0 %\n     Track quality 100.0 %\n     Copy CRC 1A0A60EF\n     Accurately ripped (confidence 2)  [3C99EBB5]\n     Copy OK\n\nTrack  2\n\n     Filename E:MusicWarAll Day MusicWar - All Day Music - 02. Get Down.wav\n\n     Peak level 100.0 %\n     Track quality 100.0 %\n     Copy CRC 75BE30B9\n     Accurately ripped (confidence 2)  [5FB2ADAA]\n     Copy OK\n\nTrack  3\n\n     Filename E:MusicWarAll Day MusicWar - All Day Music - 03. That's What Love Will Do.wav\n\n     Peak level 100.0 %\n     Track quality 100.0 %\n     Copy CRC A3CD0677\n     Accurately ripped (confidence 2)  [E823A4AC]\n     Copy OK\n\nTrack  4\n\n     Filename E:MusicWarAll Day MusicWar - All Day Music - 04. There Must Be A Reason.wav\n\n     Peak level 80.7 %\n     Track quality 100.0 %\n     Copy CRC 75EC9E88\n     Accurately ripped (confidence 2)  [C277B2AD]\n     Copy OK\n\nTrack  5\n\n     Filename E:MusicWarAll Day MusicWar - All Day Music - 05. Nappy Head (Theme from Ghetto Man).wav\n\n     Peak level 100.0 %\n     Track quality 100.0 %\n     Copy CRC ACCDF5FF\n     Accurately ripped (confidence 2)  [8389753A]\n     Copy OK\n\nTrack  6\n\n     Filename E:MusicWarAll Day MusicWar - All Day Music - 06. Slippin' Into Darkness.wav\n\n     Peak level 100.0 %\n     Track quality 100.0 %\n     Copy CRC 2B53206D\n     Accurately ripped (confidence 2)  [C06621E3]\n     Copy OK\n\nTrack  7\n\n     Filename E:MusicWarAll Day MusicWar - All Day Music - 07. Baby Brother.wav\n\n     Peak level 97.5 %\n     Track quality 100.0 %\n     Copy CRC BB0ED151\n     Accurately ripped (confidence 2)  [07DAD5BE]\n     Copy OK\n\n\nAll tracks accurately ripped\n\nNo errors occurred\n\nEnd of status report","torrent":{"xt":"urn:btih:333b3f36b08d878405daf5a994898700eb52e6fd","amp;dn":"War+-+All+Day+Music+EAC+Cue+sowingmyseed","amp;tr":["udp%3A%2F%2Ftracker.openbittorrent.com%3A80","udp%3A%2F%2Fopen.demonii.com%3A1337","udp%3A%2F%2Ftracker.coppersurfer.tk%3A6969","udp%3A%2F%2Fexodus.desync.com%3A6969"],"infoHash":"333b3f36b08d878405daf5a994898700eb52e6fd","infoHashBuffer":{"type":"Buffer","data":[51,59,63,54,176,141,135,132,5,218,245,169,148,137,135,0,235,82,230,253]},"announce":[],"urlList":[]}}